<mxfile host="Electron" modified="2023-11-20T11:29:09.471Z" agent="Mozilla/5.0 (Windows NT 10.0; Win64; x64) AppleWebKit/537.36 (KHTML, like Gecko) draw.io/22.1.2 Chrome/114.0.5735.289 Electron/25.9.4 Safari/537.36" etag="WalXKiXswmzeWF0iDyqf" version="22.1.2" type="device">
  <diagram name="Page-1" id="NF_gy5pmsO5akwYxZwUg">
    <mxGraphModel dx="1036" dy="606" grid="1" gridSize="10" guides="1" tooltips="1" connect="1" arrows="1" fold="1" page="1" pageScale="1" pageWidth="850" pageHeight="1100" math="0" shadow="0">
      <root>
        <mxCell id="0" />
        <mxCell id="1" parent="0" />
        <mxCell id="9nWBS4BSYlFvJjN8ltoU-1" value="" style="whiteSpace=wrap;html=1;aspect=fixed;fillColor=#dae8fc;strokeColor=#6c8ebf;" vertex="1" parent="1">
          <mxGeometry x="20" y="60" width="250" height="250" as="geometry" />
        </mxCell>
        <mxCell id="9nWBS4BSYlFvJjN8ltoU-3" value="" style="rounded=0;whiteSpace=wrap;html=1;fillColor=#008a00;fontColor=#ffffff;strokeColor=#005700;" vertex="1" parent="1">
          <mxGeometry x="65" y="260" width="160" height="40" as="geometry" />
        </mxCell>
        <mxCell id="9nWBS4BSYlFvJjN8ltoU-4" value="" style="whiteSpace=wrap;html=1;aspect=fixed;" vertex="1" parent="1">
          <mxGeometry x="55" y="70" width="180" height="180" as="geometry" />
        </mxCell>
        <mxCell id="9nWBS4BSYlFvJjN8ltoU-7" value="" style="whiteSpace=wrap;html=1;aspect=fixed;fillColor=#dae8fc;strokeColor=#6c8ebf;" vertex="1" parent="1">
          <mxGeometry x="290" y="60" width="250" height="250" as="geometry" />
        </mxCell>
        <mxCell id="9nWBS4BSYlFvJjN8ltoU-8" value="" style="rounded=0;whiteSpace=wrap;html=1;fillColor=#008a00;fontColor=#ffffff;strokeColor=#005700;" vertex="1" parent="1">
          <mxGeometry x="335" y="260" width="160" height="40" as="geometry" />
        </mxCell>
        <mxCell id="9nWBS4BSYlFvJjN8ltoU-9" value="" style="whiteSpace=wrap;html=1;aspect=fixed;" vertex="1" parent="1">
          <mxGeometry x="325" y="70" width="180" height="180" as="geometry" />
        </mxCell>
        <mxCell id="9nWBS4BSYlFvJjN8ltoU-12" value="" style="rounded=1;whiteSpace=wrap;html=1;fillColor=#f5f5f5;fontColor=#333333;strokeColor=#666666;" vertex="1" parent="1">
          <mxGeometry x="620" y="60" width="20" height="600" as="geometry" />
        </mxCell>
        <mxCell id="9nWBS4BSYlFvJjN8ltoU-14" value="" style="rounded=1;whiteSpace=wrap;html=1;fillColor=#fff2cc;strokeColor=#d6b656;" vertex="1" parent="1">
          <mxGeometry x="670" y="60" width="150" height="600" as="geometry" />
        </mxCell>
        <mxCell id="9nWBS4BSYlFvJjN8ltoU-15" value="" style="whiteSpace=wrap;html=1;aspect=fixed;fillColor=#dae8fc;strokeColor=#6c8ebf;" vertex="1" parent="1">
          <mxGeometry x="20" y="340" width="250" height="250" as="geometry" />
        </mxCell>
        <mxCell id="9nWBS4BSYlFvJjN8ltoU-16" value="" style="rounded=0;whiteSpace=wrap;html=1;fillColor=#008a00;fontColor=#ffffff;strokeColor=#005700;" vertex="1" parent="1">
          <mxGeometry x="65" y="540" width="160" height="40" as="geometry" />
        </mxCell>
        <mxCell id="9nWBS4BSYlFvJjN8ltoU-17" value="" style="whiteSpace=wrap;html=1;aspect=fixed;" vertex="1" parent="1">
          <mxGeometry x="55" y="350" width="180" height="180" as="geometry" />
        </mxCell>
        <mxCell id="9nWBS4BSYlFvJjN8ltoU-18" value="" style="whiteSpace=wrap;html=1;aspect=fixed;fillColor=#dae8fc;strokeColor=#6c8ebf;" vertex="1" parent="1">
          <mxGeometry x="290" y="340" width="250" height="250" as="geometry" />
        </mxCell>
        <mxCell id="9nWBS4BSYlFvJjN8ltoU-19" value="" style="rounded=0;whiteSpace=wrap;html=1;fillColor=#008a00;fontColor=#ffffff;strokeColor=#005700;" vertex="1" parent="1">
          <mxGeometry x="335" y="540" width="160" height="40" as="geometry" />
        </mxCell>
        <mxCell id="9nWBS4BSYlFvJjN8ltoU-20" value="" style="whiteSpace=wrap;html=1;aspect=fixed;" vertex="1" parent="1">
          <mxGeometry x="325" y="350" width="180" height="180" as="geometry" />
        </mxCell>
      </root>
    </mxGraphModel>
  </diagram>
</mxfile>
